<svg width="53" height="15" viewBox="0 0 53 15" fill="none" xmlns="http://www.w3.org/2000/svg">
<path d="M0.964058 11.4486L0.974374 4.02127H2.39795V8.5602L4.28573 5.87811H6.01877L4.0072 8.66336L6.15288 11.4486H4.32699L2.39795 8.76651V11.4486H0.964058ZM6.66617 11.4486V5.87811H7.90406V7.23978L7.76995 7.06442C7.84216 6.87186 7.93844 6.69649 8.05879 6.53831C8.17914 6.38014 8.327 6.24947 8.50237 6.14632C8.63647 6.06379 8.78261 6.00018 8.94079 5.95547C9.09896 5.90733 9.2623 5.87811 9.43079 5.86779C9.59928 5.85404 9.76777 5.85747 9.93626 5.87811V7.18821C9.78152 7.14007 9.601 7.12459 9.39468 7.14178C9.19181 7.15554 9.00784 7.20196 8.84279 7.28105C8.67774 7.3567 8.53847 7.45813 8.425 7.58536C8.31153 7.70915 8.22556 7.85701 8.16711 8.02894C8.10865 8.19743 8.07942 8.38827 8.07942 8.60146V11.4486H6.66617ZM11.0205 5.10442V3.86654H12.4235V5.10442H11.0205ZM11.0205 11.4486V5.87811H12.4235V11.4486H11.0205ZM16.1464 11.6033C15.4449 11.6033 14.8776 11.4452 14.4443 11.1288C14.0145 10.809 13.7532 10.3586 13.6603 9.77746L15.0942 9.56083C15.1527 9.82216 15.2816 10.0268 15.4811 10.1746C15.6839 10.3225 15.9401 10.3964 16.2496 10.3964C16.504 10.3964 16.7 10.3483 16.8376 10.252C16.9751 10.1523 17.0439 10.0147 17.0439 9.83935C17.0439 9.72932 17.0164 9.64163 16.9614 9.5763C16.9063 9.50753 16.7826 9.44048 16.59 9.37514C16.4009 9.30981 16.1052 9.22385 15.7028 9.11725C15.2489 9.00034 14.8862 8.86967 14.6145 8.72525C14.3429 8.58083 14.1469 8.4089 14.0265 8.20946C13.9062 8.00659 13.846 7.76245 13.846 7.47705C13.846 7.11943 13.9371 6.80996 14.1194 6.54863C14.3016 6.28386 14.5578 6.08098 14.8879 5.94C15.2214 5.79558 15.6134 5.72337 16.0639 5.72337C16.5006 5.72337 16.8874 5.79042 17.2244 5.92453C17.5614 6.05863 17.833 6.24947 18.0394 6.49705C18.2491 6.74463 18.3781 7.03691 18.4262 7.37389L16.9923 7.63178C16.9682 7.42547 16.8788 7.26213 16.7241 7.14178C16.5694 7.02143 16.3596 6.95094 16.0948 6.93031C15.8369 6.91312 15.6289 6.9475 15.4707 7.03347C15.316 7.11943 15.2386 7.24322 15.2386 7.40484C15.2386 7.50112 15.2713 7.58192 15.3366 7.64726C15.4054 7.71259 15.5447 7.77964 15.7544 7.84841C15.9676 7.91718 16.2908 8.00659 16.7241 8.11662C17.147 8.22666 17.4857 8.3556 17.7402 8.50346C17.9981 8.64788 18.1855 8.82325 18.3024 9.02957C18.4193 9.23244 18.4778 9.4783 18.4778 9.76714C18.4778 10.3379 18.2715 10.7867 17.8588 11.1133C17.4462 11.44 16.8754 11.6033 16.1464 11.6033ZM23.4074 11.4486V8.81809C23.4074 8.69087 23.4005 8.52925 23.3868 8.33325C23.373 8.13382 23.33 7.93438 23.2578 7.73494C23.1856 7.5355 23.067 7.36873 22.9019 7.23463C22.7403 7.10052 22.5099 7.03347 22.2108 7.03347C22.0904 7.03347 21.9615 7.05238 21.8239 7.09021C21.6864 7.12803 21.5575 7.20196 21.4371 7.31199C21.3168 7.41859 21.217 7.57677 21.1379 7.78652C21.0623 7.99627 21.0245 8.2748 21.0245 8.62209L20.2198 8.24041C20.2198 7.80027 20.3093 7.38764 20.4881 7.00252C20.6669 6.6174 20.9351 6.30621 21.2927 6.06895C21.6537 5.83168 22.1076 5.71305 22.6544 5.71305C23.0911 5.71305 23.447 5.78698 23.722 5.93484C23.9971 6.0827 24.2103 6.2701 24.3616 6.49705C24.5164 6.724 24.6264 6.96126 24.6917 7.20884C24.7571 7.45298 24.7966 7.67648 24.8104 7.87936C24.8241 8.08224 24.831 8.2301 24.831 8.32294V11.4486H23.4074ZM19.6009 11.4486V4.02127H20.8491V7.8381H21.0245V11.4486H19.6009Z" fill="#31353B"/>
<path d="M29.1919 11.4486V10.2932H25.9631V8.98315L28.3047 4.02127H29.914L27.5723 8.98315H29.1919V7.12631H30.6155V8.98315H31.2757V10.2932H30.6155V11.4486H29.1919ZM34.0633 11.6033C33.6645 11.6033 33.3258 11.5277 33.0472 11.3764C32.7721 11.2217 32.5624 11.0171 32.418 10.7626C32.277 10.5047 32.2065 10.221 32.2065 9.91156C32.2065 9.65367 32.246 9.41813 32.3251 9.20493C32.4042 8.99174 32.5314 8.80434 32.7068 8.64273C32.8856 8.47767 33.1246 8.34013 33.4238 8.2301C33.6301 8.15445 33.8759 8.08739 34.1613 8.02894C34.4467 7.97048 34.77 7.91547 35.131 7.86389C35.4921 7.80887 35.8892 7.74869 36.3225 7.68336L35.817 7.96189C35.817 7.63178 35.7379 7.38936 35.5797 7.23463C35.4216 7.07989 35.1568 7.00252 34.7854 7.00252C34.5791 7.00252 34.3642 7.05238 34.1407 7.1521C33.9172 7.25182 33.7607 7.42891 33.6713 7.68336L32.4025 7.28105C32.5435 6.82028 32.8083 6.44547 33.1968 6.15663C33.5854 5.86779 34.1149 5.72337 34.7854 5.72337C35.2772 5.72337 35.7139 5.79902 36.0955 5.95032C36.4772 6.10161 36.7661 6.36295 36.9621 6.73431C37.0721 6.94063 37.1374 7.14694 37.1581 7.35326C37.1787 7.55957 37.189 7.78996 37.189 8.04441V11.4486H35.9614V10.3036L36.1368 10.5408C35.8652 10.9156 35.5712 11.1873 35.2548 11.3558C34.9419 11.5208 34.5447 11.6033 34.0633 11.6033ZM34.3625 10.4996C34.6204 10.4996 34.837 10.4549 35.0124 10.3655C35.1912 10.2726 35.3322 10.1677 35.4353 10.0508C35.5419 9.93391 35.6141 9.83591 35.652 9.75683C35.7242 9.60553 35.7654 9.43016 35.7757 9.23072C35.7895 9.02785 35.7964 8.85936 35.7964 8.72525L36.209 8.82841C35.7929 8.89718 35.456 8.95564 35.1981 9.00378C34.9402 9.04848 34.7321 9.08974 34.574 9.12757C34.4158 9.16539 34.2765 9.20665 34.1562 9.25135C34.0186 9.30637 33.9069 9.36655 33.8209 9.43188C33.7384 9.49377 33.6765 9.56255 33.6352 9.6382C33.5974 9.71384 33.5785 9.79809 33.5785 9.89093C33.5785 10.0182 33.6094 10.1282 33.6713 10.221C33.7367 10.3104 33.8278 10.3792 33.9447 10.4273C34.0616 10.4755 34.2009 10.4996 34.3625 10.4996ZM38.6333 11.4486V3.86654H40.0362V11.4486H38.6333ZM44.1718 11.6033C43.601 11.6033 43.0972 11.4813 42.6605 11.2371C42.2273 10.9896 41.8869 10.6509 41.6393 10.221C41.3951 9.78777 41.2731 9.29262 41.2731 8.73557C41.2731 8.12694 41.3934 7.5974 41.6341 7.14694C41.8748 6.69649 42.2066 6.34747 42.6296 6.09989C43.0525 5.84888 43.5391 5.72337 44.0893 5.72337C44.6738 5.72337 45.1707 5.86091 45.5799 6.136C45.9891 6.41109 46.2917 6.79793 46.4877 7.29652C46.6837 7.79512 46.7525 8.38139 46.694 9.05536H45.3065V8.53957C45.3065 7.9722 45.2154 7.56473 45.0332 7.31715C44.8544 7.06614 44.5604 6.94063 44.1512 6.94063C43.6732 6.94063 43.3207 7.08677 43.0938 7.37905C42.8703 7.66789 42.7585 8.09599 42.7585 8.66336C42.7585 9.18258 42.8703 9.5849 43.0938 9.8703C43.3207 10.1523 43.6526 10.2932 44.0893 10.2932C44.3644 10.2932 44.5999 10.2331 44.7959 10.1127C44.9919 9.99237 45.1415 9.81872 45.2446 9.59177L46.6476 9.99409C46.4378 10.503 46.106 10.8984 45.6521 11.1804C45.2017 11.4624 44.7082 11.6033 44.1718 11.6033ZM42.3253 9.05536V8.01347H46.0183V9.05536H42.3253ZM47.0382 11.4486L49.0291 8.63241L47.0795 5.87811H48.73L49.8441 7.52862L50.9376 5.87811H52.5881L50.6384 8.63241L52.6397 11.4486H50.9891L49.8441 9.73619L48.6887 11.4486H47.0382Z" fill="#FF0000"/>
</svg>
